# xmcd
#
# Track frame offsets:
# 150
# 15662
# 38980
# 60082
# 74175
# 93325
# 113427
# 128795
# 147290
# 160927
#
# Disc length: 2365 seconds
#
#
# Revision: 0
# Processed by: cddbd v1.5.2PL0 Copyright (c) Steve Scherf et al.
# Submitted via: FreeRIP 2.11 
#
DISCID=81093b0a
DTITLE=The Delgado Brothers - The Delgado Brothers
DYEAR=1987
DGENRE=Blues
TTITLE0=That's Where I Come In
TTITLE1=Jo Anne
TTITLE2=Our Days Are Numbered
TTITLE3=Her Number
TTITLE4=Fair Warning
TTITLE5=Where Do I Stand
TTITLE6=Thanks A Lot
TTITLE7=Really Down
TTITLE8=It Ain't There
TTITLE9=Last Chance Saloon
EXTD=
EXTT0=
EXTT1=
EXTT2=
EXTT3=
EXTT4=
EXTT5=
EXTT6=
EXTT7=
EXTT8=
EXTT9=
PLAYORDER=
